<mxfile host="app.diagrams.net" modified="2023-06-26T19:56:55.686Z" agent="Mozilla/5.0 (Windows NT 10.0; Win64; x64) AppleWebKit/537.36 (KHTML, like Gecko) Chrome/114.0.0.0 Safari/537.36 Edg/114.0.1823.58" etag="yml3OSTFpy4wcgMvXJFX" version="21.3.8" type="device">
  <diagram name="Page-1" id="NhVrTMpUCWT60BgvRX1r">
    <mxGraphModel dx="2471" dy="1129" grid="1" gridSize="10" guides="1" tooltips="1" connect="1" arrows="1" fold="1" page="1" pageScale="1" pageWidth="850" pageHeight="1100" math="0" shadow="0">
      <root>
        <mxCell id="0" />
        <mxCell id="1" parent="0" />
        <mxCell id="qKiPQo36cmQ2Jqyz1XmY-29" value="" style="rounded=1;whiteSpace=wrap;html=1;fillColor=#dae8fc;strokeColor=#6c8ebf;" vertex="1" parent="1">
          <mxGeometry x="160" y="10" width="560" height="520" as="geometry" />
        </mxCell>
        <mxCell id="qKiPQo36cmQ2Jqyz1XmY-8" value="" style="rounded=1;whiteSpace=wrap;html=1;fillColor=#f8cecc;strokeColor=#b85450;" vertex="1" parent="1">
          <mxGeometry x="-170" y="60" width="330" height="230" as="geometry" />
        </mxCell>
        <mxCell id="qKiPQo36cmQ2Jqyz1XmY-3" style="edgeStyle=orthogonalEdgeStyle;rounded=0;orthogonalLoop=1;jettySize=auto;html=1;exitX=0.96;exitY=0.7;exitDx=0;exitDy=0;exitPerimeter=0;entryX=0;entryY=0.25;entryDx=0;entryDy=0;endArrow=none;endFill=0;" edge="1" parent="1" source="qKiPQo36cmQ2Jqyz1XmY-1" target="qKiPQo36cmQ2Jqyz1XmY-2">
          <mxGeometry relative="1" as="geometry" />
        </mxCell>
        <mxCell id="qKiPQo36cmQ2Jqyz1XmY-1" value="ISP&lt;br&gt;WAN" style="ellipse;shape=cloud;whiteSpace=wrap;html=1;" vertex="1" parent="1">
          <mxGeometry x="-150" y="70" width="120" height="80" as="geometry" />
        </mxCell>
        <mxCell id="qKiPQo36cmQ2Jqyz1XmY-9" style="edgeStyle=orthogonalEdgeStyle;rounded=0;orthogonalLoop=1;jettySize=auto;html=1;exitX=1;exitY=0.5;exitDx=0;exitDy=0;entryX=0;entryY=0.75;entryDx=0;entryDy=0;endArrow=none;endFill=0;" edge="1" parent="1" source="qKiPQo36cmQ2Jqyz1XmY-2" target="qKiPQo36cmQ2Jqyz1XmY-6">
          <mxGeometry relative="1" as="geometry" />
        </mxCell>
        <mxCell id="qKiPQo36cmQ2Jqyz1XmY-2" value="Cable Modem&lt;br&gt;" style="image;html=1;image=img/lib/clip_art/networking/Modem_128x128.png" vertex="1" parent="1">
          <mxGeometry x="10" y="150" width="80" height="80" as="geometry" />
        </mxCell>
        <mxCell id="qKiPQo36cmQ2Jqyz1XmY-14" style="edgeStyle=orthogonalEdgeStyle;rounded=0;orthogonalLoop=1;jettySize=auto;html=1;exitX=1;exitY=0.5;exitDx=0;exitDy=0;endArrow=none;endFill=0;" edge="1" parent="1" source="qKiPQo36cmQ2Jqyz1XmY-6" target="qKiPQo36cmQ2Jqyz1XmY-7">
          <mxGeometry relative="1" as="geometry">
            <Array as="points">
              <mxPoint x="270" y="120" />
              <mxPoint x="510" y="120" />
            </Array>
          </mxGeometry>
        </mxCell>
        <mxCell id="qKiPQo36cmQ2Jqyz1XmY-35" style="edgeStyle=orthogonalEdgeStyle;rounded=0;orthogonalLoop=1;jettySize=auto;html=1;exitX=1;exitY=0.75;exitDx=0;exitDy=0;endArrow=none;endFill=0;" edge="1" parent="1" source="qKiPQo36cmQ2Jqyz1XmY-6" target="qKiPQo36cmQ2Jqyz1XmY-25">
          <mxGeometry relative="1" as="geometry" />
        </mxCell>
        <mxCell id="qKiPQo36cmQ2Jqyz1XmY-36" style="edgeStyle=orthogonalEdgeStyle;rounded=0;orthogonalLoop=1;jettySize=auto;html=1;exitX=1;exitY=1;exitDx=0;exitDy=0;endArrow=none;endFill=0;" edge="1" parent="1" source="qKiPQo36cmQ2Jqyz1XmY-6" target="qKiPQo36cmQ2Jqyz1XmY-23">
          <mxGeometry relative="1" as="geometry" />
        </mxCell>
        <mxCell id="qKiPQo36cmQ2Jqyz1XmY-6" value="Router" style="image;html=1;image=img/lib/clip_art/networking/Router_128x128.png" vertex="1" parent="1">
          <mxGeometry x="210" y="80" width="80" height="80" as="geometry" />
        </mxCell>
        <mxCell id="qKiPQo36cmQ2Jqyz1XmY-20" style="edgeStyle=orthogonalEdgeStyle;rounded=0;orthogonalLoop=1;jettySize=auto;html=1;exitX=1;exitY=0.75;exitDx=0;exitDy=0;dashed=1;curved=1;endArrow=none;endFill=0;" edge="1" parent="1" source="qKiPQo36cmQ2Jqyz1XmY-7" target="qKiPQo36cmQ2Jqyz1XmY-19">
          <mxGeometry relative="1" as="geometry">
            <Array as="points">
              <mxPoint x="700" y="120" />
              <mxPoint x="700" y="360" />
              <mxPoint x="661" y="360" />
            </Array>
          </mxGeometry>
        </mxCell>
        <mxCell id="qKiPQo36cmQ2Jqyz1XmY-21" style="edgeStyle=orthogonalEdgeStyle;rounded=0;orthogonalLoop=1;jettySize=auto;html=1;exitX=1;exitY=1;exitDx=0;exitDy=0;endArrow=none;dashed=1;endFill=0;curved=1;" edge="1" parent="1" source="qKiPQo36cmQ2Jqyz1XmY-7" target="qKiPQo36cmQ2Jqyz1XmY-16">
          <mxGeometry relative="1" as="geometry">
            <Array as="points">
              <mxPoint x="680" y="300" />
              <mxPoint x="583" y="300" />
            </Array>
          </mxGeometry>
        </mxCell>
        <mxCell id="qKiPQo36cmQ2Jqyz1XmY-22" style="edgeStyle=orthogonalEdgeStyle;rounded=0;orthogonalLoop=1;jettySize=auto;html=1;exitX=0.5;exitY=1;exitDx=0;exitDy=0;dashed=1;endArrow=none;endFill=0;curved=1;" edge="1" parent="1" source="qKiPQo36cmQ2Jqyz1XmY-7" target="qKiPQo36cmQ2Jqyz1XmY-17">
          <mxGeometry relative="1" as="geometry">
            <Array as="points">
              <mxPoint x="640" y="230" />
              <mxPoint x="580" y="230" />
            </Array>
          </mxGeometry>
        </mxCell>
        <mxCell id="qKiPQo36cmQ2Jqyz1XmY-7" value="WAP" style="image;html=1;image=img/lib/clip_art/networking/Wireless_Router_N_128x128.png" vertex="1" parent="1">
          <mxGeometry x="600" y="60" width="80" height="80" as="geometry" />
        </mxCell>
        <mxCell id="qKiPQo36cmQ2Jqyz1XmY-10" value="&lt;span style=&quot;background-color: rgb(255, 255, 255);&quot;&gt;NAT&lt;br&gt;Boundary&lt;/span&gt;" style="sketch=0;points=[[0.5,0,0],[1,0.5,0],[0.5,1,0],[0,0.5,0],[0.145,0.145,0],[0.8555,0.145,0],[0.855,0.8555,0],[0.145,0.855,0]];verticalLabelPosition=bottom;html=1;verticalAlign=top;aspect=fixed;align=center;pointerEvents=1;shape=mxgraph.cisco19.rect;prIcon=router;fillColor=#FAFAFA;strokeColor=#005073;" vertex="1" parent="1">
          <mxGeometry x="140" y="130" width="50" height="50" as="geometry" />
        </mxCell>
        <mxCell id="qKiPQo36cmQ2Jqyz1XmY-13" value="DHCP&lt;br&gt;(scope determined by ISP)&lt;br&gt;example: 121.35.118.0/24" style="text;html=1;strokeColor=default;fillColor=none;align=center;verticalAlign=middle;whiteSpace=wrap;rounded=0;strokeWidth=2;fontStyle=2" vertex="1" parent="1">
          <mxGeometry x="-30" y="70" width="180" height="50" as="geometry" />
        </mxCell>
        <mxCell id="qKiPQo36cmQ2Jqyz1XmY-16" value="" style="verticalLabelPosition=bottom;sketch=0;aspect=fixed;html=1;verticalAlign=top;strokeColor=none;align=center;outlineConnect=0;shape=mxgraph.citrix.cell_phone;" vertex="1" parent="1">
          <mxGeometry x="570" y="380" width="25" height="60" as="geometry" />
        </mxCell>
        <mxCell id="qKiPQo36cmQ2Jqyz1XmY-17" value="" style="image;html=1;image=img/lib/clip_art/computers/Laptop_128x128.png" vertex="1" parent="1">
          <mxGeometry x="540" y="239" width="80" height="80" as="geometry" />
        </mxCell>
        <mxCell id="qKiPQo36cmQ2Jqyz1XmY-19" value="" style="verticalLabelPosition=bottom;sketch=0;aspect=fixed;html=1;verticalAlign=top;strokeColor=none;align=center;outlineConnect=0;shape=mxgraph.citrix.tablet_2;" vertex="1" parent="1">
          <mxGeometry x="620" y="380" width="82" height="86" as="geometry" />
        </mxCell>
        <mxCell id="qKiPQo36cmQ2Jqyz1XmY-23" value="" style="verticalLabelPosition=bottom;sketch=0;aspect=fixed;html=1;verticalAlign=top;strokeColor=none;align=center;outlineConnect=0;shape=mxgraph.citrix.desktop;" vertex="1" parent="1">
          <mxGeometry x="386" y="239" width="89" height="98" as="geometry" />
        </mxCell>
        <mxCell id="qKiPQo36cmQ2Jqyz1XmY-34" style="edgeStyle=orthogonalEdgeStyle;rounded=0;orthogonalLoop=1;jettySize=auto;html=1;exitX=0.3;exitY=0;exitDx=0;exitDy=0;exitPerimeter=0;entryX=0.75;entryY=1;entryDx=0;entryDy=0;endArrow=none;endFill=0;" edge="1" parent="1" source="qKiPQo36cmQ2Jqyz1XmY-24" target="qKiPQo36cmQ2Jqyz1XmY-6">
          <mxGeometry relative="1" as="geometry" />
        </mxCell>
        <mxCell id="qKiPQo36cmQ2Jqyz1XmY-24" value="" style="fontColor=#0066CC;verticalAlign=top;verticalLabelPosition=bottom;labelPosition=center;align=center;html=1;outlineConnect=0;fillColor=#CCCCCC;strokeColor=#6881B3;gradientColor=none;gradientDirection=north;strokeWidth=2;shape=mxgraph.networks.security_camera;" vertex="1" parent="1">
          <mxGeometry x="330" y="337" width="100" height="75" as="geometry" />
        </mxCell>
        <mxCell id="qKiPQo36cmQ2Jqyz1XmY-25" value="" style="verticalLabelPosition=bottom;sketch=0;aspect=fixed;html=1;verticalAlign=top;strokeColor=none;align=center;outlineConnect=0;shape=mxgraph.citrix.printer;" vertex="1" parent="1">
          <mxGeometry x="475" y="140" width="70" height="70" as="geometry" />
        </mxCell>
        <mxCell id="qKiPQo36cmQ2Jqyz1XmY-30" value="&lt;b&gt;&lt;font style=&quot;font-size: 15px;&quot;&gt;ISP network&lt;/font&gt;&lt;/b&gt;" style="text;html=1;strokeColor=none;fillColor=none;align=center;verticalAlign=middle;whiteSpace=wrap;rounded=0;" vertex="1" parent="1">
          <mxGeometry x="-110" y="200" width="60" height="30" as="geometry" />
        </mxCell>
        <mxCell id="qKiPQo36cmQ2Jqyz1XmY-31" value="&lt;b&gt;&lt;font style=&quot;font-size: 15px;&quot;&gt;Home network&lt;/font&gt;&lt;/b&gt;" style="text;html=1;strokeColor=none;fillColor=none;align=center;verticalAlign=middle;whiteSpace=wrap;rounded=0;" vertex="1" parent="1">
          <mxGeometry x="415" y="20" width="60" height="30" as="geometry" />
        </mxCell>
        <mxCell id="qKiPQo36cmQ2Jqyz1XmY-32" value="DHCP&lt;br&gt;192.168.1.0/24" style="text;html=1;strokeColor=default;fillColor=none;align=center;verticalAlign=middle;whiteSpace=wrap;rounded=0;strokeWidth=2;fontStyle=2" vertex="1" parent="1">
          <mxGeometry x="200" y="30" width="180" height="40" as="geometry" />
        </mxCell>
        <mxCell id="qKiPQo36cmQ2Jqyz1XmY-39" value="&lt;span style=&quot;background-color: rgb(255, 255, 255);&quot;&gt;LAN IP&lt;br&gt;192.168.1.1&lt;br&gt;&lt;/span&gt;" style="text;html=1;strokeColor=none;fillColor=none;align=center;verticalAlign=middle;whiteSpace=wrap;rounded=0;" vertex="1" parent="1">
          <mxGeometry x="260" y="80" width="60" height="30" as="geometry" />
        </mxCell>
        <mxCell id="qKiPQo36cmQ2Jqyz1XmY-40" value="&lt;span style=&quot;background-color: rgb(255, 255, 255);&quot;&gt;&amp;nbsp;WAN IP&amp;nbsp;&lt;br&gt;121.35.118.48&lt;br&gt;&lt;/span&gt;" style="text;html=1;strokeColor=none;fillColor=none;align=center;verticalAlign=middle;whiteSpace=wrap;rounded=0;" vertex="1" parent="1">
          <mxGeometry x="170" y="80" width="60" height="30" as="geometry" />
        </mxCell>
        <mxCell id="qKiPQo36cmQ2Jqyz1XmY-41" value="&lt;span style=&quot;background-color: rgb(255, 255, 255);&quot;&gt;LAN IP&lt;br&gt;192.168.1.3&lt;br&gt;&lt;/span&gt;" style="text;html=1;strokeColor=none;fillColor=none;align=center;verticalAlign=middle;whiteSpace=wrap;rounded=0;" vertex="1" parent="1">
          <mxGeometry x="520" y="239" width="60" height="30" as="geometry" />
        </mxCell>
        <mxCell id="qKiPQo36cmQ2Jqyz1XmY-42" value="&lt;span style=&quot;background-color: rgb(255, 255, 255);&quot;&gt;LAN IP&lt;br&gt;192.168.1.6&lt;br&gt;&lt;/span&gt;" style="text;html=1;strokeColor=none;fillColor=none;align=center;verticalAlign=middle;whiteSpace=wrap;rounded=0;" vertex="1" parent="1">
          <mxGeometry x="415" y="290" width="60" height="30" as="geometry" />
        </mxCell>
        <mxCell id="qKiPQo36cmQ2Jqyz1XmY-43" value="&lt;span style=&quot;background-color: rgb(255, 255, 255);&quot;&gt;LAN IP&lt;br&gt;192.168.1.5&lt;br&gt;&lt;/span&gt;" style="text;html=1;strokeColor=none;fillColor=none;align=center;verticalAlign=middle;whiteSpace=wrap;rounded=0;" vertex="1" parent="1">
          <mxGeometry x="631" y="436" width="60" height="30" as="geometry" />
        </mxCell>
        <mxCell id="qKiPQo36cmQ2Jqyz1XmY-44" value="&lt;span style=&quot;background-color: rgb(255, 255, 255);&quot;&gt;LAN IP&lt;br&gt;192.168.1.5&lt;br&gt;&lt;/span&gt;" style="text;html=1;strokeColor=none;fillColor=none;align=center;verticalAlign=middle;whiteSpace=wrap;rounded=0;" vertex="1" parent="1">
          <mxGeometry x="355" y="382" width="60" height="30" as="geometry" />
        </mxCell>
        <mxCell id="qKiPQo36cmQ2Jqyz1XmY-45" value="&lt;span style=&quot;background-color: rgb(255, 255, 255);&quot;&gt;LAN IP&lt;br&gt;192.168.1.4&lt;br&gt;&lt;/span&gt;" style="text;html=1;strokeColor=none;fillColor=none;align=center;verticalAlign=middle;whiteSpace=wrap;rounded=0;" vertex="1" parent="1">
          <mxGeometry x="550" y="425" width="60" height="30" as="geometry" />
        </mxCell>
        <mxCell id="qKiPQo36cmQ2Jqyz1XmY-46" value="&lt;span style=&quot;background-color: rgb(255, 255, 255);&quot;&gt;LAN IP&lt;br&gt;192.168.1.7&lt;br&gt;&lt;/span&gt;" style="text;html=1;strokeColor=none;fillColor=none;align=center;verticalAlign=middle;whiteSpace=wrap;rounded=0;" vertex="1" parent="1">
          <mxGeometry x="500" y="170" width="60" height="30" as="geometry" />
        </mxCell>
        <mxCell id="qKiPQo36cmQ2Jqyz1XmY-48" value="" style="rounded=1;whiteSpace=wrap;html=1;fillColor=#d5e8d4;strokeColor=#82b366;" vertex="1" parent="1">
          <mxGeometry x="-210" y="530" width="990" height="320" as="geometry" />
        </mxCell>
        <mxCell id="qKiPQo36cmQ2Jqyz1XmY-50" style="edgeStyle=orthogonalEdgeStyle;rounded=0;orthogonalLoop=1;jettySize=auto;html=1;exitX=0.5;exitY=0;exitDx=0;exitDy=0;exitPerimeter=0;entryX=0.25;entryY=1;entryDx=0;entryDy=0;endArrow=none;endFill=0;" edge="1" parent="1" source="qKiPQo36cmQ2Jqyz1XmY-47" target="qKiPQo36cmQ2Jqyz1XmY-6">
          <mxGeometry relative="1" as="geometry" />
        </mxCell>
        <mxCell id="qKiPQo36cmQ2Jqyz1XmY-51" value="" style="edgeStyle=orthogonalEdgeStyle;rounded=0;orthogonalLoop=1;jettySize=auto;html=1;endArrow=none;endFill=0;entryX=0;entryY=0.5;entryDx=0;entryDy=0;startArrow=classic;startFill=1;" edge="1" parent="1" source="qKiPQo36cmQ2Jqyz1XmY-47" target="qKiPQo36cmQ2Jqyz1XmY-55">
          <mxGeometry relative="1" as="geometry">
            <Array as="points">
              <mxPoint x="345" y="540" />
              <mxPoint x="345" y="555" />
            </Array>
          </mxGeometry>
        </mxCell>
        <mxCell id="qKiPQo36cmQ2Jqyz1XmY-47" value="&lt;span style=&quot;background-color: rgb(255, 255, 255);&quot;&gt;NAT&lt;br&gt;Boundary&lt;/span&gt;" style="sketch=0;points=[[0.5,0,0],[1,0.5,0],[0.5,1,0],[0,0.5,0],[0.145,0.145,0],[0.8555,0.145,0],[0.855,0.8555,0],[0.145,0.855,0]];verticalLabelPosition=bottom;html=1;verticalAlign=top;aspect=fixed;align=center;pointerEvents=1;shape=mxgraph.cisco19.rect;prIcon=router;fillColor=#FAFAFA;strokeColor=#005073;" vertex="1" parent="1">
          <mxGeometry x="180" y="500" width="50" height="50" as="geometry" />
        </mxCell>
        <mxCell id="qKiPQo36cmQ2Jqyz1XmY-49" value="" style="shape=image;verticalLabelPosition=bottom;labelBackgroundColor=default;verticalAlign=top;aspect=fixed;imageAspect=0;image=https://miro.medium.com/max/6120/1*_Yt5zTEOUbo6i22rTm3wvw.png;" vertex="1" parent="1">
          <mxGeometry x="-150" y="630" width="190" height="55.89" as="geometry" />
        </mxCell>
        <mxCell id="qKiPQo36cmQ2Jqyz1XmY-52" value="&lt;span style=&quot;background-color: rgb(255, 255, 255);&quot;&gt;LAN2 IP&lt;br&gt;10.0.2.1&lt;br&gt;&lt;/span&gt;" style="text;html=1;strokeColor=none;fillColor=none;align=center;verticalAlign=middle;whiteSpace=wrap;rounded=0;" vertex="1" parent="1">
          <mxGeometry x="275" y="655.8900000000001" width="60" height="30" as="geometry" />
        </mxCell>
        <mxCell id="qKiPQo36cmQ2Jqyz1XmY-72" style="edgeStyle=orthogonalEdgeStyle;rounded=0;orthogonalLoop=1;jettySize=auto;html=1;exitX=1;exitY=0.5;exitDx=0;exitDy=0;entryX=0;entryY=0.5;entryDx=0;entryDy=0;endArrow=classic;endFill=1;" edge="1" parent="1" source="qKiPQo36cmQ2Jqyz1XmY-55" target="qKiPQo36cmQ2Jqyz1XmY-71">
          <mxGeometry relative="1" as="geometry" />
        </mxCell>
        <mxCell id="qKiPQo36cmQ2Jqyz1XmY-55" value="&lt;span style=&quot;background-color: rgb(255, 255, 255);&quot;&gt;WAN IP&lt;br&gt;192.168.1.8&lt;br&gt;&lt;/span&gt;" style="text;html=1;strokeColor=none;fillColor=none;align=center;verticalAlign=middle;whiteSpace=wrap;rounded=0;" vertex="1" parent="1">
          <mxGeometry x="355" y="540" width="60" height="30" as="geometry" />
        </mxCell>
        <mxCell id="qKiPQo36cmQ2Jqyz1XmY-57" value="&lt;span style=&quot;background-color: rgb(255, 255, 255);&quot;&gt;LAN1 IP&lt;br&gt;10.0.1.1&lt;br&gt;&lt;/span&gt;" style="text;html=1;strokeColor=none;fillColor=none;align=center;verticalAlign=middle;whiteSpace=wrap;rounded=0;" vertex="1" parent="1">
          <mxGeometry x="150" y="655.89" width="60" height="24.11" as="geometry" />
        </mxCell>
        <mxCell id="qKiPQo36cmQ2Jqyz1XmY-58" style="edgeStyle=orthogonalEdgeStyle;rounded=0;orthogonalLoop=1;jettySize=auto;html=1;exitX=0.5;exitY=1;exitDx=0;exitDy=0;" edge="1" parent="1" source="qKiPQo36cmQ2Jqyz1XmY-57" target="qKiPQo36cmQ2Jqyz1XmY-57">
          <mxGeometry relative="1" as="geometry" />
        </mxCell>
        <mxCell id="qKiPQo36cmQ2Jqyz1XmY-59" value="&lt;span style=&quot;background-color: rgb(255, 255, 255);&quot;&gt;LAN3 IP&lt;br&gt;10.0.3.1&lt;br&gt;&lt;/span&gt;" style="text;html=1;strokeColor=none;fillColor=none;align=center;verticalAlign=middle;whiteSpace=wrap;rounded=0;" vertex="1" parent="1">
          <mxGeometry x="425" y="649.9999999999999" width="60" height="30" as="geometry" />
        </mxCell>
        <mxCell id="qKiPQo36cmQ2Jqyz1XmY-61" value="&lt;b&gt;&lt;font style=&quot;font-size: 15px;&quot;&gt;Lab&lt;br&gt;network&lt;/font&gt;&lt;/b&gt;" style="text;html=1;strokeColor=none;fillColor=none;align=center;verticalAlign=middle;whiteSpace=wrap;rounded=0;" vertex="1" parent="1">
          <mxGeometry x="50" y="570" width="60" height="30" as="geometry" />
        </mxCell>
        <mxCell id="qKiPQo36cmQ2Jqyz1XmY-62" value="DHCP&lt;br&gt;10.0.1.0/24" style="text;html=1;strokeColor=default;fillColor=none;align=center;verticalAlign=middle;whiteSpace=wrap;rounded=0;strokeWidth=2;fontStyle=2" vertex="1" parent="1">
          <mxGeometry x="130" y="682.94" width="90" height="32.94" as="geometry" />
        </mxCell>
        <mxCell id="qKiPQo36cmQ2Jqyz1XmY-63" value="DHCP&lt;br&gt;10.0.2.0/24" style="text;html=1;strokeColor=default;fillColor=none;align=center;verticalAlign=middle;whiteSpace=wrap;rounded=0;strokeWidth=2;fontStyle=2" vertex="1" parent="1">
          <mxGeometry x="260" y="685.8900000000001" width="90" height="32.94" as="geometry" />
        </mxCell>
        <mxCell id="qKiPQo36cmQ2Jqyz1XmY-64" value="DHCP&lt;br&gt;10.0.3.0/24" style="text;html=1;strokeColor=default;fillColor=none;align=center;verticalAlign=middle;whiteSpace=wrap;rounded=0;strokeWidth=2;fontStyle=2" vertex="1" parent="1">
          <mxGeometry x="410" y="680" width="90" height="32.94" as="geometry" />
        </mxCell>
        <mxCell id="qKiPQo36cmQ2Jqyz1XmY-76" style="edgeStyle=orthogonalEdgeStyle;rounded=0;orthogonalLoop=1;jettySize=auto;html=1;exitX=0.75;exitY=0;exitDx=0;exitDy=0;entryX=0;entryY=0.75;entryDx=0;entryDy=0;strokeColor=#6600CC;startArrow=classic;startFill=1;" edge="1" parent="1" source="qKiPQo36cmQ2Jqyz1XmY-67" target="qKiPQo36cmQ2Jqyz1XmY-71">
          <mxGeometry relative="1" as="geometry" />
        </mxCell>
        <mxCell id="qKiPQo36cmQ2Jqyz1XmY-67" value="" style="rounded=0;whiteSpace=wrap;html=1;fillColor=none;strokeColor=#6600CC;strokeWidth=3;" vertex="1" parent="1">
          <mxGeometry x="85" y="650" width="145" height="94.11" as="geometry" />
        </mxCell>
        <mxCell id="qKiPQo36cmQ2Jqyz1XmY-77" style="edgeStyle=orthogonalEdgeStyle;rounded=0;orthogonalLoop=1;jettySize=auto;html=1;exitX=0.25;exitY=0;exitDx=0;exitDy=0;entryX=0;entryY=1;entryDx=0;entryDy=0;strokeColor=#FF0000;startArrow=classic;startFill=1;" edge="1" parent="1" source="qKiPQo36cmQ2Jqyz1XmY-69" target="qKiPQo36cmQ2Jqyz1XmY-71">
          <mxGeometry relative="1" as="geometry" />
        </mxCell>
        <mxCell id="qKiPQo36cmQ2Jqyz1XmY-69" value="" style="rounded=0;whiteSpace=wrap;html=1;fillColor=none;strokeColor=#FF0000;strokeWidth=3;" vertex="1" parent="1">
          <mxGeometry x="240" y="650" width="145" height="94.11" as="geometry" />
        </mxCell>
        <mxCell id="qKiPQo36cmQ2Jqyz1XmY-73" style="edgeStyle=orthogonalEdgeStyle;rounded=0;orthogonalLoop=1;jettySize=auto;html=1;exitX=1;exitY=0;exitDx=0;exitDy=0;strokeColor=#CCCC00;startArrow=classic;startFill=1;" edge="1" parent="1" source="qKiPQo36cmQ2Jqyz1XmY-70" target="qKiPQo36cmQ2Jqyz1XmY-71">
          <mxGeometry relative="1" as="geometry">
            <Array as="points">
              <mxPoint x="540" y="629" />
              <mxPoint x="530" y="629" />
            </Array>
          </mxGeometry>
        </mxCell>
        <mxCell id="qKiPQo36cmQ2Jqyz1XmY-70" value="" style="rounded=0;whiteSpace=wrap;html=1;fillColor=none;strokeColor=#CCCC00;strokeWidth=3;" vertex="1" parent="1">
          <mxGeometry x="395" y="649.41" width="145" height="94.11" as="geometry" />
        </mxCell>
        <mxCell id="qKiPQo36cmQ2Jqyz1XmY-71" value="" style="image;html=1;image=img/lib/clip_art/networking/Firewall_02_128x128.png" vertex="1" parent="1">
          <mxGeometry x="490" y="530" width="80" height="80" as="geometry" />
        </mxCell>
      </root>
    </mxGraphModel>
  </diagram>
</mxfile>
